Coordinates
version=1
nRows=19
nColumns=24
inDegrees=yes

Units are S.I. units (second, meters, Newtons, ...)
Angles are in degrees.

endheader
time	pelvis_tilt	pelvis_list	pelvis_rotation	pelvis_tx	pelvis_ty	pelvis_tz	hip_flexion_r	hip_adduction_r	hip_rotation_r	knee_angle_r	ankle_angle_r	subtalar_angle_r	mtp_angle_r	hip_flexion_l	hip_adduction_l	hip_rotation_l	knee_angle_l	ankle_angle_l	subtalar_angle_l	mtp_angle_l	lumbar_extension	lumbar_bending	lumbar_rotation
      3.94000000	     -0.64105995	      3.75243797	      5.82369668	     -1.54243438	      0.90979839	      0.24417241	     32.02413194	     -3.13616695	     -4.98805340	    -17.57943906	      9.99929786	     -7.34554324	      0.00000000	    -15.32428363	      7.80954478	      5.73036126	    -16.30388038	     25.15580552	    -10.06857026	      0.00000000	    -12.07060505	     -3.75405499	    -17.96867426
      3.94500000	     -0.60244398	      3.56998339	      5.94860931	     -1.53436239	      0.90879276	      0.24440758	     32.10681748	     -2.88810376	     -4.63590272	    -18.59104394	      9.17819584	     -8.34805655	      0.00000000	    -15.34968670	      7.48049751	      5.52597192	    -17.30717939	     24.99410635	     -9.63360715	      0.00000000	    -12.00829017	     -3.49212650	    -18.10347285
      3.95000000	     -0.60956487	      3.31191164	      5.90755514	     -1.52621953	      0.90775580	      0.24498628	     32.25702433	     -2.47064006	     -4.18335653	    -19.58994762	      8.22095685	     -9.31225442	      0.00000000	    -15.21905006	      7.06235162	      4.72643230	    -18.46258396	     24.94396633	     -8.73772866	      0.00000000	    -11.86667010	     -3.18875618	    -17.99087624
      3.95500000	     -0.62721435	      3.02603385	      5.89461278	     -1.51813166	      0.90684402	      0.24551826	     32.41722353	     -2.05357305	     -3.85205020	    -20.58445954	      7.25944170	    -10.12613658	      0.00000000	    -15.02290618	      6.60714889	      4.00624261	    -19.69997253	     24.77074615	     -7.91971070	      0.00000000	    -11.71913026	     -2.84180947	    -17.92021928
      3.96000000	     -0.66361743	      2.70081899	      5.84297673	     -1.51003484	      0.90600619	      0.24613404	     32.60135397	     -1.57789589	     -3.52043202	    -21.57514716	      6.30850362	    -10.85823446	      0.00000000	    -14.74856486	      6.10841858	      3.23001851	    -21.02366981	     24.48886291	     -7.11588506	      0.00000000	    -11.54492715	     -2.46563698	    -17.78957281
      3.96500000	     -0.71301549	      2.35011730	      5.78837234	     -1.50196476	      0.90526519	      0.24676734	     32.80227332	     -1.07453146	     -3.20606538	    -22.57134716	      5.39021902	    -11.53376231	      0.00000000	    -14.39540955	      5.57239573	      2.44467373	    -22.44434957	     24.09815532	     -6.34158463	      0.00000000	    -11.35668744	     -2.05845765	    -17.64656709
      3.97000000	     -0.77596290	      1.97108768	      5.71566944	     -1.49387850	      0.90460467	      0.24743917	     33.01938223	     -0.53122114	     -2.89507223	    -23.57681723	      4.52832848	    -12.15533859	      0.00000000	    -13.97068985	      4.99867792	      1.65137563	    -23.95141033	     23.58753521	     -5.59666971	      0.00000000	    -11.14717031	     -1.62213112	    -17.48182678
      3.97500000	     -0.83816903	      1.58190727	      5.63578185	     -1.48579567	      0.90401907	      0.24813051	     33.23648148	      0.03213698	     -2.57994885	    -24.59591514	      3.75967648	    -12.74503507	      0.00000000	    -13.48532661	      4.40302874	      0.86899925	    -25.55335666	     22.95584671	     -4.90653594	      0.00000000	    -10.93807444	     -1.17541881	    -17.30979915
      3.98000000	     -0.90420526	      1.17627618	      5.55206054	     -1.47768234	      0.90350428	      0.24884153	     33.44615662	      0.61890106	     -2.27225246	    -25.61037689	      3.08355743	    -13.30514874	      0.00000000	    -12.94020222	      3.77656747	      0.10585396	    -27.23905995	     22.19842178	     -4.26988745	      0.00000000	    -10.71838360	     -0.71245699	    -17.12998401
      3.98500000	     -0.95996770	      0.77952624	      5.45333328	     -1.46960574	      0.90303948	      0.24959614	     33.63844734	      1.21579954	     -1.94193535	    -26.62342467	      2.51241320	    -13.86836673	      0.00000000	    -12.34734967	      3.14982620	     -0.62455225	    -29.01186890	     21.33070215	     -3.69950772	      0.00000000	    -10.52136770	     -0.26224138	    -16.96390275
      3.99000000	     -1.01107858	      0.35423032	      5.36037966	     -1.46145844	      0.90265880	      0.25031568	     33.78550098	      1.82764314	     -1.69624398	    -27.58065628	      2.09433043	    -14.35216970	      0.00000000	    -11.70897317	      2.48525026	     -1.29471105	    -30.85608196	     20.31678356	     -3.21982927	      0.00000000	    -10.31259469	      0.22510217	    -16.77532081
      3.99500000	     -1.04621333	     -0.07143385	      5.25885832	     -1.45328557	      0.90236613	      0.25102375	     33.87122722	      2.43828522	     -1.50824721	    -28.46960615	      1.83859001	    -14.78917970	      0.00000000	    -11.03948773	      1.81454883	     -1.92567336	    -32.76040092	     19.14938498	     -2.84548864	      0.00000000	    -10.11842261	      0.71313774	    -16.59090374
      4.00000000	     -1.09130961	     -0.48842834	      5.15808926	     -1.44523093	      0.90207492	      0.25186830	     33.94200308	      3.06209882	     -1.27622223	    -29.31530658	      1.66264261	    -15.28146085	      0.00000000	    -10.28806175	      1.12723469	     -2.52168116	    -34.75842684	     17.93995963	     -2.47838659	      0.00000000	     -9.94044486	      1.16946173	    -16.41044126
      4.00500000	     -1.12210078	     -0.92129353	      5.04347620	     -1.43714199	      0.90187101	      0.25267411	     33.93937700	      3.68748852	     -1.15249115	    -30.06627204	      1.69074811	    -15.66039506	      0.00000000	     -9.51531238	      0.42963026	     -3.06009648	    -36.78539850	     16.59610110	     -2.26375978	      0.00000000	     -9.76715411	      1.65177438	    -16.21489428
      4.01000000	     -1.13475939	     -1.37157266	      4.91627485	     -1.42912700	      0.90174560	      0.25344910	     33.87203303	      4.32243456	     -1.07967040	    -30.73805507	      1.87912802	    -15.91936388	      0.00000000	     -8.71777800	     -0.26938137	     -3.50787496	    -38.84487004	     15.16445272	     -2.22182960	      0.00000000	     -9.63402731	      2.16414968	    -15.98055680
      4.01500000	     -1.17572090	     -1.82201258	      4.77057387	     -1.42116634	      0.90163173	      0.25432339	     33.78382654	      4.96832975	     -1.03001717	    -31.31850218	      2.17310454	    -16.19231550	      0.00000000	     -7.84180338	     -0.97895910	     -3.94244716	    -40.94207306	     13.68700087	     -2.24061760	      0.00000000	     -9.47421056	      2.65666336	    -15.75672875
      4.02000000	     -1.16946738	     -2.26102020	      4.60899158	     -1.41323971	      0.90167360	      0.25515636	     33.58387677	      5.59830750	     -1.02062278	    -31.80161048	      2.64461967	    -16.33899159	      0.00000000	     -6.99593239	     -1.65575333	     -4.31047608	    -43.01182191	     12.09816894	     -2.49129936	      0.00000000	     -9.38012188	      3.14608982	    -15.50371695
      4.02500000	     -1.27124347	     -2.74027608	      4.42932443	     -1.40548915	      0.90159021	      0.25612504	     33.47738180	      6.27489590	     -1.00757285	    -32.22241616	      3.08503935	    -16.50421110	      0.00000000	     -5.96125922	     -2.37519220	     -4.63794586	    -45.15283721	     10.57650925	     -2.77633795	      0.00000000	     -9.18708044	      3.64934251	    -15.21151362
      4.03000000	     -1.27607980	     -3.18670726	      4.22661780	     -1.39774362	      0.90174612	      0.25703384	     33.19590423	      6.92496935	     -0.99981507	    -32.53699382	      3.70115924	    -16.56135273	      0.00000000	     -5.02966205	     -3.04093005	     -4.94324432	    -47.21766132	      8.95158419	     -3.32832640	      0.00000000	     -9.11647559	      4.13750306	    -14.91634720
